<?xml version="1.0" encoding="UTF-8"?>
<svg id="Layer_1" xmlns="http://www.w3.org/2000/svg" version="1.1" viewBox="0 0 2000 863.22">
  <!-- Generator: Adobe Illustrator 29.8.1, SVG Export Plug-In . SVG Version: 2.1.1 Build 2)  -->
  <defs>
    <style>
      .st0 {
        fill: #66ea95;
      }

      .st1 {
        fill: #2c2d3c;
      }
    </style>
  </defs>
  <g>
    <g>
      <path class="st1" d="M228.2,577.53c5.37,0,9.67,3.07,11.06,7.86l41.58,150.65c.84,2.84,4.66,3.49,6.24,1.06l101.18-151.72c3.1-4.79,8.53-7.86,13.9-7.86h53.25c7.6,0,12.68,6.05,11.29,13.51l-39.1,216.36c-1.36,7.47-8.6,13.52-16.2,13.52h-41.49c-7.6,0-12.68-6.05-11.32-13.52l15.65-86.56-61.7,92.22c-3.1,4.79-8.53,7.86-13.9,7.86h-54.94c-5.37,0-9.67-3.08-11.06-7.86l-28.45-91.77-15.56,86.11c-1.35,7.47-8.6,13.52-16.2,13.52h-41.49c-7.6,0-12.67-6.05-11.31-13.52l39.09-216.36c1.36-7.47,8.6-13.51,16.2-13.51h53.26Z"/>
      <path class="st1" d="M729.66,590.91l-6.34,34.99c-1.36,7.47-8.6,13.51-16.2,13.51h-67.19c-1.52,0-2.98,1.23-3.23,2.72l-29.88,165.27c-1.36,7.47-8.6,13.51-16.2,13.51h-45.95c-7.6,0-12.67-6.04-11.31-13.51l29.87-165.27c.29-1.52-.74-2.72-2.26-2.72h-67.19c-7.6,0-12.68-6.04-11.32-13.51l6.31-34.99c1.36-7.47,8.6-13.51,16.2-13.51h213.38c7.59,0,12.63,6.05,11.31,13.51Z"/>
    </g>
    <g>
      <path class="st1" d="M825.64,577.53c5.37,0,9.67,3.07,11.06,7.86l41.58,150.65c.84,2.84,4.66,3.49,6.24,1.06l101.18-151.72c3.1-4.79,8.53-7.86,13.9-7.86h53.25c7.6,0,12.68,6.05,11.29,13.51l-39.1,216.36c-1.36,7.47-8.6,13.52-16.2,13.52h-41.49c-7.6,0-12.68-6.05-11.32-13.52l15.65-86.56-61.7,92.22c-3.1,4.79-8.53,7.86-13.9,7.86h-54.94c-5.37,0-9.67-3.08-11.06-7.86l-28.45-91.77-15.56,86.11c-1.35,7.47-8.6,13.52-16.2,13.52h-41.49c-7.6,0-12.67-6.05-11.31-13.52l39.09-216.36c1.36-7.47,8.6-13.51,16.2-13.51h53.26Z"/>
      <path class="st1" d="M1335.4,820.89c-7.6,0-12.68-6.04-11.32-13.51l6.63-36.73c1.36-7.47,8.6-13.51,16.2-13.51h152.82c4.55,0,8.92-3.62,9.74-8.12l2.06-11.51c.81-4.49-2.23-8.11-6.79-8.11h-109.91c-35.7,0-59.5-28.43-53.16-63.54l4.5-24.83c6.34-35.09,40.42-63.54,76.12-63.54h162.52c7.6,0,12.68,6.05,11.32,13.55l-6.34,34.99c-1.36,7.47-8.6,13.51-16.2,13.51h-148.68c-4.56,0-8.92,3.62-9.73,8.11l-2.78,15.33c-.81,4.5,2.23,8.11,6.79,8.11h109.91c35.7,0,59.5,28.46,53.16,63.54l-4.11,22.76c-6.34,35.09-40.42,63.54-76.12,63.54h-7.12v-.04h-159.52Z"/>
      <path class="st1" d="M1880.37,590.91l-39.12,216.49c-1.36,7.47-8.6,13.51-16.2,13.51h-45.95c-7.6,0-12.68-6.04-11.32-13.51l13.9-77.06c.26-1.51-.74-2.72-2.26-2.72h-89.05c-1.52,0-2.98,1.23-3.23,2.72l-13.94,77.06c-1.36,7.47-8.6,13.51-16.2,13.51h-45.95c-7.6,0-12.67-6.04-11.31-13.51l39.12-216.49c1.36-7.47,8.6-13.51,16.2-13.51h45.94c7.6,0,12.65,6.05,11.32,13.51l-13.68,75.67c-.26,1.49.74,2.68,2.26,2.68h89.05c1.52,0,2.98-1.2,3.23-2.68l13.68-75.67c1.36-7.47,8.6-13.51,16.2-13.51h45.95c7.6,0,12.65,6.05,11.35,13.51Z"/>
      <path class="st1" d="M1324.53,580.93h-205.18c-7.6,0-14.88,6.07-16.2,13.56l-6.52,36.02c-1.19,6.57,3.86,12.62,10.54,12.62h206.13c4.54,0,8.92-3.64,9.71-8.12l8.34-45.95c.79-4.48-2.27-8.12-6.81-8.12ZM1279.9,673.68h-114.7c-.21,0-.42-.05-.63-.11h-66.76c-5.18,0-9.62,3.71-10.54,8.81l-6.73,37.24c-1.19,6.57,3.86,12.62,10.54,12.62h62.78c.26-.05.47-.11.74-.11h114.7c4.59,0,8.92-3.64,9.76-8.12l7.6-42.21c.84-4.48-2.22-8.13-6.75-8.13ZM1291.98,761h-142.56c-.21,0-.42,0-.63-.11h-66.76c-5.18,0-9.62,3.71-10.54,8.81l-7.54,41.68c-1.32,7.44,3.75,13.51,11.4,13.51h205.13c4.59,0,8.92-3.64,9.76-8.13l8.55-47.64c.84-4.48-2.22-8.12-6.81-8.12Z"/>
    </g>
  </g>
  <g>
    <path class="st0" d="M1169.89,502.71h-366.8c-46.22,0-81.1-41.94-72.67-87.38l58.67-316.56c6.49-35.03,37.05-60.44,72.67-60.44h366.8c46.22,0,81.1,41.94,72.67,87.38l-58.67,316.56c-6.49,35.03-37.05,60.44-72.67,60.44Z"/>
    <g>
      <path class="st1" d="M1094.22,231.07l101.17-80.83c4.1-3.12,9.9.42,9.01,5.49l-44.1,231.69c-.48,2.71-2.83,4.68-5.58,4.68h-83.67c-3.52,0-6.19-3.18-5.58-6.65l26.6-150.86c.25-1.4,1.02-2.66,2.15-3.53Z"/>
      <path class="st1" d="M840.95,316.14l97.1-76.14c4.09-3.21,9.98.32,9.07,5.44l-25.04,141.99c-.48,2.71-2.83,4.68-5.58,4.68h-83.67c-3.52,0-6.19-3.18-5.58-6.65l11.61-65.84c.24-1.38.98-2.61,2.08-3.47Z"/>
      <path class="st1" d="M886.82,148.94h122.85c1.56-.03,3.07.59,4.15,1.71l71.17,73.12c2.38,2.45,2.07,6.42-.65,8.48l-78.01,58.71c-2.35,1.77-5.67,1.44-7.63-.75l-116.01-131.83c-3.23-3.62-.72-9.36,4.13-9.44Z"/>
    </g>
  </g>
</svg>