<?xml version="1.0" encoding="UTF-8"?>
<svg id="Layer_1" xmlns="http://www.w3.org/2000/svg" version="1.1" viewBox="0 0 2000 446.26">
  <!-- Generator: Adobe Illustrator 29.8.1, SVG Export Plug-In . SVG Version: 2.1.1 Build 2)  -->
  <defs>
    <style>
      .st0 {
        fill: #2c2d3c;
      }
    </style>
  </defs>
  <g>
    <g>
      <path class="st0" d="M656.39,133.26c3.97,0,7.15,2.27,8.17,5.81l30.73,111.35c.62,2.1,3.44,2.58,4.62.78l74.78-112.14c2.29-3.54,6.31-5.81,10.28-5.81h39.36c5.62,0,9.37,4.47,8.34,9.99l-28.9,159.91c-1,5.52-6.36,9.99-11.97,9.99h-30.67c-5.62,0-9.37-4.47-8.36-9.99l11.57-63.98-45.61,68.16c-2.29,3.54-6.31,5.81-10.28,5.81h-40.61c-3.97,0-7.15-2.27-8.17-5.81l-21.03-67.83-11.5,63.65c-1,5.52-6.36,9.99-11.97,9.99h-30.67c-5.62,0-9.37-4.47-8.36-9.99l28.89-159.91c1-5.52,6.36-9.99,11.97-9.99h39.37Z"/>
      <path class="st0" d="M1027.03,143.16l-4.68,25.86c-1,5.52-6.36,9.99-11.97,9.99h-49.66c-1.13,0-2.2.91-2.39,2.01l-22.09,122.15c-1,5.52-6.36,9.99-11.97,9.99h-33.96c-5.62,0-9.37-4.47-8.36-9.99l22.08-122.15c.21-1.12-.55-2.01-1.67-2.01h-49.66c-5.62,0-9.37-4.46-8.37-9.99l4.66-25.86c1-5.52,6.36-9.99,11.98-9.99h157.72c5.61,0,9.34,4.47,8.36,9.99Z"/>
    </g>
    <g>
      <path class="st0" d="M1097.97,133.26c3.97,0,7.15,2.27,8.17,5.81l30.73,111.35c.62,2.1,3.44,2.58,4.62.78l74.78-112.14c2.29-3.54,6.31-5.81,10.28-5.81h39.36c5.62,0,9.37,4.47,8.34,9.99l-28.9,159.91c-1,5.52-6.36,9.99-11.97,9.99h-30.67c-5.62,0-9.37-4.47-8.36-9.99l11.57-63.98-45.61,68.16c-2.29,3.54-6.31,5.81-10.28,5.81h-40.61c-3.97,0-7.15-2.27-8.17-5.81l-21.03-67.83-11.5,63.65c-1,5.52-6.36,9.99-11.97,9.99h-30.67c-5.62,0-9.37-4.47-8.36-9.99l28.89-159.91c1-5.52,6.36-9.99,11.97-9.99h39.37Z"/>
      <path class="st0" d="M1474.74,313.14c-5.62,0-9.37-4.47-8.36-9.99l4.9-27.15c1-5.52,6.36-9.99,11.98-9.99h112.95c3.37,0,6.6-2.68,7.2-6l1.53-8.51c.6-3.32-1.65-6-5.02-6h-81.24c-26.39,0-43.98-21.01-39.3-46.96l3.32-18.36c4.68-25.93,29.88-46.96,56.26-46.96h120.12c5.62,0,9.37,4.47,8.37,10.02l-4.68,25.86c-1,5.52-6.36,9.99-11.98,9.99h-109.89c-3.37,0-6.6,2.68-7.19,6l-2.05,11.33c-.6,3.32,1.65,6,5.02,6h81.24c26.38,0,43.98,21.03,39.29,46.96l-3.04,16.82c-4.68,25.93-29.88,46.96-56.26,46.96h-5.26v-.03h-117.9Z"/>
      <path class="st0" d="M1877.54,143.16l-28.92,160.01c-1,5.52-6.36,9.99-11.97,9.99h-33.96c-5.62,0-9.37-4.47-8.37-9.99l10.28-56.96c.19-1.12-.55-2.01-1.67-2.01h-65.82c-1.12,0-2.2.91-2.39,2.01l-10.3,56.96c-1,5.52-6.36,9.99-11.97,9.99h-33.96c-5.62,0-9.37-4.47-8.36-9.99l28.92-160.01c1-5.52,6.36-9.99,11.98-9.99h33.96c5.62,0,9.35,4.47,8.37,9.99l-10.11,55.93c-.19,1.1.55,1.98,1.67,1.98h65.82c1.12,0,2.2-.88,2.39-1.98l10.11-55.93c1-5.52,6.36-9.99,11.97-9.99h33.96c5.62,0,9.35,4.47,8.39,9.99Z"/>
      <path class="st0" d="M1466.71,135.78h-151.66c-5.62,0-11,4.48-11.97,10.02l-4.82,26.63c-.88,4.86,2.85,9.33,7.79,9.33h152.35c3.35,0,6.59-2.69,7.18-6.01l6.16-33.97c.59-3.31-1.68-6.01-5.03-6.01ZM1433.72,204.33h-84.78c-.16,0-.31-.04-.47-.08h-49.34c-3.83,0-7.11,2.74-7.79,6.51l-4.98,27.53c-.88,4.86,2.85,9.33,7.79,9.33h46.4c.19-.04.35-.08.55-.08h84.78c3.39,0,6.59-2.69,7.21-6.01l5.62-31.2c.62-3.31-1.64-6.01-4.99-6.01ZM1442.65,268.87h-105.37c-.16,0-.31,0-.47-.08h-49.34c-3.83,0-7.11,2.74-7.79,6.51l-5.57,30.81c-.97,5.5,2.77,9.98,8.42,9.98h151.62c3.39,0,6.59-2.69,7.21-6.01l6.32-35.21c.62-3.31-1.64-6.01-5.03-6.01Z"/>
    </g>
  </g>
  <path class="st0" d="M491.44,51.51H220.33c-26.34,0-48.92,18.79-53.72,44.68l-43.36,233.97c-6.23,33.59,19.55,64.59,53.71,64.59h271.11c26.33,0,48.92-18.79,53.72-44.68l43.36-233.97c6.23-33.59-19.55-64.59-53.71-64.59ZM283.42,204.59l-18.51,104.95c-.35,2-2.09,3.46-4.12,3.46h-61.84c-2.61,0-4.58-2.35-4.13-4.92l8.59-48.66c.17-1.02.72-1.93,1.53-2.57l71.77-56.28c3.02-2.37,7.37.24,6.71,4.02ZM321.54,237.68l-85.75-97.44c-2.39-2.67-.53-6.92,3.05-6.98h90.8c1.16-.01,2.27.44,3.07,1.27l52.61,54.05c1.76,1.8,1.53,4.75-.49,6.26l-57.65,43.39c-1.74,1.31-4.19,1.07-5.64-.55ZM473.57,138.29l-32.59,171.25c-.35,2-2.09,3.46-4.12,3.46h-61.85c-2.6,0-4.57-2.35-4.12-4.92l19.66-111.5c.18-1.04.75-1.97,1.59-2.61l74.77-59.74c3.04-2.31,7.32.31,6.66,4.06Z"/>
</svg>